<svg height="16" viewBox="0 0 16 16" width="16" xmlns="http://www.w3.org/2000/svg"><g fill="#ff4000"><path d="m5.21 2.36c0 1.15.84 1.79 2.43 2 1.35.21 2.57.11 3-1.05.75-2.22-1.09-1.66-2.64-1.91s-2.85-.9-2.79.96z"/><path d="m5.69 7.1c.15.86.95 1.36 2.18 1.32s2.13-.51 2.28-1.42c.23-1.74-1.15-1.08-2.36-1s-2.39-.59-2.1 1.1z"/><path d="m7.29 11.05c.24.64.91.91 1.82.72s1.53-.49 1.48-1.23c-.09-1.35-1-.93-1.89-.73s-1.89-.03-1.41 1.24z"/><path d="m8.07 14.06c.07.54.54.86 1.27.86s1.3-.3 1.39-.88c.18-1.08-.64-.68-1.38-.67s-1.42-.37-1.28.69z"/></g></svg>